<?xml version="1.0" encoding="UTF-8" standalone="no"?>
<!-- Created with Inkscape (http://www.inkscape.org/) -->

<svg
   version="1.1"
   id="svg132"
   width="857.33331"
   height="354.66666"
   viewBox="0 0 857.33331 354.66666"
   sodipodi:docname="logo_przez.svg"
   xml:space="preserve"
   inkscape:export-filename="logo_przezv2.png"
   inkscape:export-xdpi="96"
   inkscape:export-ydpi="96"
   inkscape:version="1.2.1 (9c6d41e410, 2022-07-14)"
   xmlns:inkscape="http://www.inkscape.org/namespaces/inkscape"
   xmlns:sodipodi="http://sodipodi.sourceforge.net/DTD/sodipodi-0.dtd"
   xmlns:xlink="http://www.w3.org/1999/xlink"
   xmlns="http://www.w3.org/2000/svg"
   xmlns:svg="http://www.w3.org/2000/svg"><defs
     id="defs136"><linearGradient
       inkscape:collect="always"
       id="linearGradient5957"><stop
         style="stop-color:#007d00;stop-opacity:1;"
         offset="0"
         id="stop5953" /><stop
         style="stop-color:#004c00;stop-opacity:1;"
         offset="1"
         id="stop5955" /></linearGradient><linearGradient
       inkscape:collect="always"
       xlink:href="#linearGradient5957"
       id="linearGradient5959"
       x1="119.57229"
       y1="309.69223"
       x2="166.80334"
       y2="41.8503"
       gradientUnits="userSpaceOnUse" /></defs><sodipodi:namedview
     id="namedview134"
     pagecolor="#505050"
     bordercolor="#eeeeee"
     borderopacity="1"
     inkscape:showpageshadow="0"
     inkscape:pageopacity="0"
     inkscape:pagecheckerboard="0"
     inkscape:deskcolor="#505050"
     showgrid="false"
     inkscape:zoom="0.59136342"
     inkscape:cx="413.45134"
     inkscape:cy="140.35362"
     inkscape:window-width="1920"
     inkscape:window-height="1017"
     inkscape:window-x="1912"
     inkscape:window-y="-8"
     inkscape:window-maximized="1"
     inkscape:current-layer="g138" /><g
     inkscape:groupmode="layer"
     inkscape:label="Image"
     id="g138"><text
       xml:space="preserve"
       style="font-style:italic;font-variant:normal;font-weight:bold;font-stretch:normal;font-size:154.205px;line-height:1.25;font-family:Georgia;-inkscape-font-specification:'Georgia, Bold Italic';font-variant-ligatures:normal;font-variant-caps:normal;font-variant-numeric:normal;font-variant-east-asian:normal;stroke-width:1.31076"
       x="118.07117"
       y="263.98383"
       id="text300"
       transform="scale(0.98083784,1.0195365)"
       inkscape:transform-center-x="-5.9981678"
       inkscape:transform-center-y="0.00029631156"><tspan
         sodipodi:role="line"
         id="tspan298"
         x="118.07117"
         y="263.98383"
         style="font-style:italic;font-variant:normal;font-weight:bold;font-stretch:normal;font-size:154.205px;font-family:Georgia;-inkscape-font-specification:'Georgia, Bold Italic';font-variant-ligatures:normal;font-variant-caps:normal;font-variant-numeric:normal;font-variant-east-asian:normal;stroke-width:1.31076">ZAMECH</tspan></text><path
       id="path2971"
       style="fill:url(#linearGradient5959);fill-opacity:1;stroke-width:0.199978"
       d="m 310.2852,156.23704 c -1.16542,-0.7107 -3.73174,-3.56392 -3.73174,-4.14891 0,-0.24823 -0.38265,-0.88715 -0.85033,-1.41981 -0.56537,-0.64392 -0.91613,-1.44845 -1.04665,-2.40075 -0.10797,-0.78775 -0.3516,-1.61938 -0.54139,-1.84806 -0.18979,-0.22869 -0.45325,-1.10006 -0.58545,-1.93639 -0.13221,-0.83633 -0.43106,-1.73895 -0.66411,-2.00581 -0.23306,-0.26687 -0.48993,-1.21403 -0.57082,-2.10479 -0.0923,-1.01623 -0.32868,-1.75235 -0.63455,-1.97601 -0.2681,-0.19603 -0.48745,-0.62613 -0.48745,-0.95575 0,-0.32964 -0.25413,-0.9224 -0.56472,-1.31726 -0.3106,-0.39486 -0.77534,-1.22201 -1.03276,-1.8381 -0.25743,-0.6161 -0.67589,-1.19993 -0.92994,-1.29742 -0.25404,-0.0975 -0.46189,-0.48101 -0.46189,-0.85227 0,-0.37127 -0.25151,-0.99584 -0.5589,-1.38794 -0.3074,-0.3921 -0.65286,-1.14312 -0.76768,-1.66894 -0.11482,-0.52581 -0.60572,-1.45552 -1.09089,-2.06602 -0.48516,-0.6105 -1.09448,-1.8405 -1.35403,-2.73333 -0.40251,-1.38459 -0.62445,-1.68706 -1.50916,-2.05671 -1.45842,-0.60937 -3.61354,-2.68056 -3.8341,-3.68479 -0.21739,-0.98975 -1.83362,-3.64204 -2.42998,-3.98764 -0.22687,-0.13148 -0.41249,-0.54848 -0.41249,-0.92667 0,-0.37819 -0.38574,-1.21225 -0.85719,-1.85346 -1.05672,-1.43722 -9.13218,-9.38644 -9.5355,-9.38644 -0.16082,0 -0.38072,-0.55229 -0.48866,-1.2273 -0.22239,-1.390785 -1.56776,-2.957725 -2.5395,-2.957725 -0.35464,0 -1.67149,-0.9972 -3.12568,-2.36696 -1.38208,-1.30183 -3.07083,-2.65162 -3.75279,-2.99953 -0.68196,-0.3479 -1.96241,-1.28685 -2.84546,-2.08654 -1.80711,-1.63652 -3.77032,-2.86229 -5.10417,-3.18688 -0.49324,-0.12003 -1.06012,-0.44775 -1.25973,-0.72827 -0.19962,-0.28051 -0.77513,-0.59246 -1.27891,-0.69322 -1.10724,-0.22145 -3.88837,-2.901 -3.88837,-3.74634 0,-0.89237 -0.81931,-1.53024 -1.96549,-1.53024 -0.56429,0 -1.52795,-0.26904 -2.14147,-0.59787 -0.61351,-0.32882 -1.37168,-0.59786 -1.68481,-0.59786 -0.31313,0 -0.71895,-0.20461 -0.90181,-0.45469 -0.18286,-0.25008 -1.03795,-0.56621 -1.90019,-0.70251 -1.10525,-0.17472 -1.78429,-0.4815 -2.30185,-1.03996 -0.40377,-0.43568 -0.92215,-0.79214 -1.15195,-0.79214 -0.2298,0 -0.97536,-0.40389 -1.6568,-0.89752 -0.68144,-0.49363 -1.87866,-1.05007 -2.6605,-1.23652 -1.65473,-0.39462 -1.77583,-0.43892 -2.7667,-1.01205 -0.41103,-0.23775 -1.24145,-0.43425 -1.84538,-0.43668 -0.74133,-0.003 -1.39761,-0.25646 -2.02015,-0.78029 -0.70337,-0.59185 -1.36468,-0.81374 -2.78804,-0.93546 -1.02628,-0.0878 -2.08915,-0.35375 -2.36195,-0.59108 -0.31168,-0.27115 -1.55659,-0.50906 -3.34989,-0.6402 -2.5074,-0.18335 -2.95528,-0.30329 -3.68903,-0.98795 -0.99703,-0.93031 -1.95068,-1.45018 -2.66027,-1.45018 -0.28559,0 -0.77278,-0.22944 -1.08266,-0.50988 -0.75206,-0.6806 -7.02321,-0.94358 -22.50133,-0.94358 -15.47811,0 -21.74927,0.26298 -22.50132,0.94358 -0.30988,0.28044 -0.73872,0.50988 -0.95299,0.50988 -0.21427,0 -0.80901,0.25271 -1.32165,0.56158 -0.64223,0.38695 -1.73063,0.60813 -3.5,0.71127 -1.41236,0.0823 -2.89207,0.32353 -3.28824,0.53599 -0.39617,0.21246 -1.92445,0.48632 -3.39617,0.60858 -1.86625,0.15502 -2.77782,0.36172 -3.01285,0.68314 -0.30247,0.41365 -0.38673,0.41114 -0.82235,-0.0245 -0.7527,-0.7527 -2.13324,-0.5941 -3.36456,0.38654 -1.83113,1.45832 -2.64529,1.91472 -3.4268,1.92097 -0.41103,0.003 -1.08362,0.18075 -1.49465,0.39437 -0.5027,0.26125 -0.9038,0.29442 -1.22534,0.10132 -0.70945,-0.42604 -2.02344,0.0139 -3.02099,1.01144 -0.48482,0.48482 -1.12203,0.88148 -1.41604,0.88148 -0.294,0 -0.90098,0.28824 -1.34884,0.64052 -0.78037,0.61384 -0.85719,0.62006 -1.84404,0.14947 -0.56636,-0.27008 -1.07359,-0.49105 -1.12718,-0.49105 -0.0536,0 -1.14913,0.87437 -2.43455,1.94305 -1.28543,1.06867 -2.58221,1.94305 -2.88175,1.94305 -0.29953,0 -0.81364,0.26903 -1.14246,0.59786 -0.32883,0.32882 -0.76601,0.59836 -0.97153,0.59898 -0.72192,0.002 -2.30504,1.1853 -2.97995,2.22707 l -0.68195,1.05265 -32.654424,0.004 -32.654427,0.004 -1.030609,-2.04652 c -0.566835,-1.12558 -1.358224,-2.43714 -1.758643,-2.91457 -0.400419,-0.47744 -0.820293,-1.29112 -0.933055,-1.80819 -0.112761,-0.51707 -0.750791,-1.66048 -1.417844,-2.54091 -1.210996,-1.59837 -2.631126,-4.2663 -2.636646,-4.95335 -0.004,-0.481 1.623444,-2.3168 2.789999,-3.14746 0.511202,-0.36401 1.532842,-0.7319 2.270311,-0.81754 1.225243,-0.14228 1.357784,-0.23882 1.537229,-1.11974 0.287201,-1.4099 0.93241,-2.26433 4.439633,-5.8793 3.780936,-3.89708 7.398195,-7.05694 8.078453,-7.05694 0.271482,0 0.943912,0.4646 1.494289,1.03244 0.550377,0.56785 1.394678,1.11898 1.876225,1.22475 0.481546,0.10577 1.582107,0.76781 2.44569,1.47121 0.863584,0.70339 1.860283,1.43417 2.214887,1.62395 0.354604,0.18978 0.84824,0.73859 1.096969,1.21958 0.33753,0.65271 0.736373,0.92222 1.572481,1.06257 2.051549,0.34437 2.898366,0.72065 6.316529,2.80671 3.598249,2.19597 5.595099,2.88669 7.576869,2.62088 1.29167,-0.17325 1.71304,-0.56415 1.72041,-1.59601 0.002,-0.35234 0.20837,-0.71882 0.45746,-0.8144 0.24908,-0.0956 0.58205,-0.51353 0.73993,-0.92877 0.25172,-0.66207 0.46295,-0.75499 1.71634,-0.75499 1.9392,0 3.316164,-0.43596 4.273324,-1.35298 0.70448,-0.67494 0.89309,-0.7247 1.57283,-0.41499 1.0904,0.49682 1.70727,0.16692 1.70727,-0.91303 0,-0.80489 0.0989,-0.90617 0.88501,-0.90617 0.48675,0 1.05846,-0.21445 1.27045,-0.47655 0.212,-0.26211 0.68957,-0.78332 1.06127,-1.15826 0.98474,-0.99331 1.3619,-3.54047 1.18675,-8.01467 -0.13722,-3.50518 -0.21405,-3.91338 -0.93133,-4.94842 -0.42997,-0.62045 -0.78177,-1.30677 -0.78177,-1.52514 0,-0.21838 -0.26815,-0.83092 -0.59588,-1.36121 -0.44505,-0.72009 -0.75124,-2.27923 -1.20957,-6.15915 -0.81384,-6.88944 -0.78803,-7.11868 0.89727,-7.96852 0.73358,-0.36993 1.69852,-0.6726 2.14431,-0.6726 0.44578,0 1.19983,-0.32759 1.67567,-0.72797 0.47583,-0.40039 2.20127,-1.26277 3.8343,-1.9164 1.63303,-0.65363 3.709,-1.5354 4.61327,-1.95948 0.90426,-0.42408 2.14856,-0.77237 2.76511,-0.77398 0.69992,-0.002 1.33447,-0.21641 1.68934,-0.57127 0.31259,-0.31259 0.88429,-0.66541 1.27045,-0.78404 0.38616,-0.11863 1.76212,-0.6967 3.05768,-1.2846 l 2.35557,-1.0689 0.58339,0.72046 c 0.64136,0.79204 9.03239,14.23413 10.82056,17.3341 1.12904,1.9573 2.08472,2.9704 2.81363,2.98266 0.21726,0.004 0.58269,0.19433 0.81207,0.4237 0.8776,0.8776 8.8404,0.95544 10.44505,0.10211 0.32543,-0.17306 1.76927,-0.42332 3.20852,-0.55612 1.43926,-0.13281 3.01595,-0.44786 3.50376,-0.70011 0.48781,-0.25226 1.2432,-0.45865 1.67865,-0.45865 1.4416,0 2.86038,-0.91152 3.45435,-2.2193 0.30436,-0.67012 0.55633,-1.53348 0.55994,-1.91858 0.004,-0.3851 0.2756,-1.0422 0.60443,-1.46024 0.32882,-0.41803 0.59786,-0.98251 0.59786,-1.25439 0,-0.27189 0.26904,-1.02205 0.59786,-1.66702 0.32882,-0.64497 0.59786,-1.68086 0.59786,-2.30198 0,-1.36738 0.88755,-3.79767 1.94329,-5.3211 0.68546,-0.98911 0.80542,-1.55165 1.02775,-4.8195 0.13845,-2.03482 0.35416,-3.96871 0.47936,-4.29754 0.35791,-0.9399605 1.07609,-1.6441205 1.67689,-1.6441205 0.30287,0 1.10881,-0.50444 1.79098,-1.12099 l 1.24031,-1.120987 9.29786,-0.09251 c 10.52228,-0.104688 11.24091,-0.04398 11.24091,0.949593 0,0.37429 0.40195,1.20894 0.89321,1.85477 0.49127,0.64583 1.03612,1.6845905 1.21078,2.3083605 0.20612,0.73611 0.56024,1.22637 1.00907,1.39702 0.92612,0.35211 1.08992,0.85936 1.36467,4.22597 0.14175,1.73712 0.41881,3.15385 0.70149,3.58717 0.25697,0.39389 0.6905,2.12861 0.96341,3.85493 0.27291,1.72633 0.61955,3.37068 0.7703,3.65412 0.15076,0.28344 0.40365,1.53701 0.56197,2.78572 0.33708,2.65867 0.9568,3.86754 2.22258,4.33554 0.50301,0.18597 1.2814,0.53375 1.72975,0.77284 0.54675,0.29155 2.17104,0.48653 4.93236,0.59208 2.66579,0.10191 4.59137,0.32733 5.46235,0.63945 1.47778,0.52957 5.80093,0.68105 8.11737,0.28443 1.62272,-0.27785 2.94307,-1.35512 2.94307,-2.40126 0,-0.39875 0.20298,-0.89346 0.45107,-1.09936 0.24809,-0.20589 0.53299,-0.88665 0.63312,-1.5128 0.10012,-0.62614 0.35779,-1.20588 0.5726,-1.28831 0.2148,-0.0824 0.60218,-0.59585 0.86084,-1.14094 0.25866,-0.54509 1.56679,-2.20107 2.90695,-3.67995 1.34016,-1.47889 2.8719,-3.36148 3.40386,-4.18354 1.06321,-1.643 4.65555,-5.23129 5.23721,-5.23129 0.20162,0 0.52395,0.21522 0.71629,0.47825 0.23778,0.32519 1.01371,0.53051 2.4244,0.64152 1.14822,0.0904 2.53993,0.41075 3.11652,0.71747 0.57301,0.30482 1.43679,0.55421 1.91951,0.55421 0.48273,0 1.10981,0.21006 1.39351,0.46681 0.28486,0.2578 1.29924,0.53629 2.26551,0.622 2.15755,0.19135 3.25976,0.59231 3.92708,1.42857 0.72551,0.90917 1.89181,1.66765 2.56434,1.66765 0.31522,0 0.72247,0.2008 0.90501,0.44622 0.18254,0.24543 0.98258,0.56655 1.77787,0.71361 0.79529,0.14705 1.6024,0.42369 1.79358,0.61474 0.21179,0.21165 0.34761,1.38021 0.34761,2.99084 0,2.09233 -0.10848,2.7635 -0.52032,3.21922 -0.32722,0.36208 -0.5069,1.01193 -0.48417,1.75105 0.0199,0.64641 -0.1127,1.71337 -0.29461,2.37101 -0.18192,0.65765 -0.33397,1.81778 -0.33789,2.57806 -0.004,0.76029 -0.22813,1.97096 -0.49824,2.69038 -0.73076,1.94636 -0.77574,12.56785 -0.0587,13.86313 1.02588,1.8532 3.39365,3.4377 5.13704,3.4377 0.39618,0 0.87538,0.18684 1.0649,0.41519 0.18951,0.22835 0.91866,0.55974 1.62034,0.73643 1.86113,0.46863 3.19087,1.47978 4.47586,3.40349 1.29655,1.941 2.05205,2.23346 4.86253,1.88232 1.18788,-0.14842 1.9271,-0.44242 2.61188,-1.03878 0.5253,-0.45748 1.42591,-1.06795 2.00135,-1.35659 0.57544,-0.28866 1.31529,-0.76084 1.64412,-1.04931 0.32882,-0.28847 1.18,-0.59763 1.89152,-0.68703 0.71151,-0.0894 1.54439,-0.38945 1.85085,-0.66679 0.30645,-0.27734 1.25996,-0.5914 2.11889,-0.69793 1.39253,-0.17269 1.62383,-0.30701 2.13513,-1.23993 1.57147,-2.86729 6.30248,-6.57647 8.38819,-6.57647 1.43575,0 1.92697,0.3496 6.53298,4.6496 1.86359,1.73978 3.75827,3.38487 4.2104,3.65576 0.45213,0.27089 0.82206,0.66039 0.82206,0.86554 0,0.68057 3.69665,4.33765 5.29826,5.24155 2.87103,1.62031 4.94428,4.77513 4.05967,6.17752 -0.16098,0.25521 -0.88629,0.77116 -1.6118,1.14655 -1.67892,0.86871 -3.14046,2.51229 -3.46886,3.90091 -0.20755,0.87759 -0.43627,1.12928 -1.20794,1.32924 -1.0758,0.27877 -3.06933,2.94555 -3.06933,4.10591 0,0.36808 -0.26904,1.01127 -0.59786,1.4293 -0.32883,0.41803 -0.59786,1.01095 -0.59786,1.3176 0,0.30665 -0.26904,0.82659 -0.59787,1.15541 -0.32882,0.32883 -0.59786,0.8699 -0.59786,1.2024 0,0.3325 -0.53171,1.18139 -1.18159,1.88642 -0.64987,0.70502 -1.32246,1.65241 -1.49465,2.10529 -0.74792,1.96717 -0.15269,4.23142 1.63154,6.20634 0.57458,0.636 1.0447,1.40416 1.0447,1.70703 0,0.30287 0.2529,0.779539 0.562,1.059269 0.37829,0.34235 0.6074,1.05612 0.7009,2.18364 0.0903,1.08839 0.31221,1.80177 0.63373,2.03687 0.27215,0.199 0.49688,0.61603 0.4994,0.92673 0.008,0.93736 0.47347,1.38674 1.6364,1.57842 1.00987,0.16646 1.14817,0.31055 1.60052,1.66746 0.98012,2.94004 4.19967,4.39071 7.10216,3.20008 0.80526,-0.33033 2.2256,-0.66796 3.15631,-0.7503 0.93072,-0.0823 2.00687,-0.3466 2.39145,-0.58726 0.39884,-0.24958 1.8192,-0.51037 3.3062,-0.60705 1.43382,-0.0932 2.91023,-0.33179 3.2809,-0.53017 0.37066,-0.19837 2.40847,-0.46593 4.52846,-0.59456 3.29736,-0.20008 3.95011,-0.32368 4.51574,-0.85509 l 0.66124,-0.62119 1.84036,2.32159 c 1.01218,1.27687 1.84193,2.49518 1.84387,2.70735 0.003,0.21218 0.27379,0.75138 0.60417,1.19824 0.33441,0.4523 0.81246,1.9377 1.07845,3.35086 0.26276,1.39612 0.66506,2.90165 0.89398,3.34562 0.22892,0.44397 0.4162,1.08594 0.4162,1.4266 0,0.34066 0.53808,1.20313 1.19573,1.91659 0.65764,0.71346 1.19572,1.51615 1.19572,1.78374 0,0.2676 0.67259,1.22924 1.49465,2.13699 1.28086,1.41437 1.49466,1.8253 1.49466,2.8729 0,1.68969 -1.51304,3.25518 -3.14613,3.25518 -0.94366,0 -1.33413,0.22781 -2.5616,1.49465 -0.98671,1.01837 -1.68928,1.49465 -2.20473,1.49465 -0.41608,0 -1.02557,0.26904 -1.3544,0.59786 -0.32882,0.32883 -0.78756,0.59787 -1.01941,0.59787 -0.23185,0 -1.11743,0.5717 -1.96795,1.27045 -3.02092,2.48183 -3.68757,2.91458 -4.49004,2.91458 -0.44661,0 -1.13284,0.25009 -1.52494,0.55576 -0.39789,0.31019 -1.40772,0.62116 -2.28532,0.70374 -0.86483,0.0814 -1.81705,0.36936 -2.11605,0.63995 -0.299,0.2706 -0.89422,0.49199 -1.3227,0.49199 -1.22572,0 -2.10725,0.4474 -3.47964,1.76599 -0.70028,0.67283 -1.52153,1.22332 -1.825,1.22332 -0.51148,0 -1.60669,1.09153 -1.86114,1.85488 -0.0605,0.18163 -1.04477,0.44241 -2.18716,0.57953 -1.26474,0.1518 -2.20688,0.42596 -2.40897,0.70102 -0.18254,0.24846 -0.58979,0.45174 -0.90501,0.45174 -0.67253,0 -1.83883,0.75847 -2.56434,1.66765 -0.57172,0.71646 -1.62683,1.18543 -3.2828,1.45913 -0.61911,0.10233 -1.65076,0.63832 -2.345,1.21834 -1.20481,1.00659 -1.31213,1.0356 -3.82693,1.03451 -1.98459,-8.9e-4 -2.79743,-0.12922 -3.48905,-0.551 z M 140.5265,38.851665 c 0.25706,-1.02423 0.0328,-1.76416 -0.56998,-1.88024 -0.7818,-0.15056 -1.40213,0.49666 -1.40213,1.46292 0,1.47889 1.61965,1.82162 1.97211,0.41732 z M 127.49396,339.45007 c -0.57544,-0.12937 -1.49216,-0.46873 -2.03714,-0.75414 -0.7311,-0.38287 -2.11765,-0.57563 -5.28858,-0.73523 -2.7554,-0.13867 -4.46287,-0.35338 -4.75795,-0.59828 -0.25315,-0.21009 -1.15484,-0.46848 -2.00376,-0.5742 -2.44207,-0.30414 -2.76743,-0.95095 -2.95162,-5.86788 l -0.14947,-3.98992 -2.98931,-2.745 c -1.64411,-1.50976 -3.46012,-2.98633 -4.03556,-3.28127 -0.57544,-0.29495 -1.31379,-0.83208 -1.64077,-1.19362 -0.90106,-0.9963 -1.57127,-1.26071 -3.821754,-1.50776 -1.58398,-0.17387 -2.24545,-0.39812 -2.85793,-0.96889 -1.24535,-1.16053 -1.96053,-1.41358 -3.99522,-1.41358 -1.32128,0 -2.22904,0.18044 -3.00787,0.59787 -0.61352,0.32882 -1.31775,0.59786 -1.56496,0.59786 -0.24722,0 -0.71852,0.26904 -1.047344,0.59786 -0.328824,0.32882 -0.76601,0.59797 -0.971525,0.5981 -0.754725,5.9e-4 -4.092308,1.77265 -4.466291,2.37149 -0.212124,0.33967 -0.657982,0.61758 -0.990797,0.61758 -0.332811,0 -1.073935,0.24905 -1.646944,0.55344 -0.573005,0.30439 -1.874161,0.62717 -2.891458,0.71729 -1.017294,0.0901 -2.157006,0.37914 -2.53269,0.64227 -0.962369,0.67408 -3.666565,0.61106 -5.284477,-0.12313 -1.246098,-0.56547 -9.482453,-6.04483 -11.763644,-7.82594 -0.63005,-0.49193 -1.495404,-1.64628 -2.017783,-2.69166 -1.130995,-2.26332 -1.250717,-4.69712 -0.31677,-6.43966 0.328823,-0.61352 0.597861,-1.38778 0.597861,-1.7206 0,-0.33281 0.250082,-0.76129 0.555742,-0.95218 0.305657,-0.19088 0.634206,-0.73939 0.730109,-1.21891 0.102353,-0.51177 1.047208,-1.80647 2.287797,-3.13488 2.250216,-2.40951 3.002828,-3.76644 3.002828,-5.41399 0,-0.69042 0.358801,-1.5427 1.10521,-2.62525 2.111162,-3.06189 2.440419,-5.28223 1.023003,-6.89854 -0.473602,-0.54006 -0.912285,-1.24917 -0.974849,-1.57579 -0.06257,-0.32662 -0.546905,-0.8647 -1.076315,-1.19572 -0.669353,-0.41853 -1.058753,-0.96609 -1.27835,-1.79759 -0.526288,-1.99276 -1.259018,-3.44929 -2.754121,-5.47466 -0.783933,-1.06197 -1.425331,-2.09611 -1.425331,-2.29808 0,-0.76719 -1.245079,-1.89439 -3.264909,-2.95578 -2.592796,-1.36247 -4.006266,-1.44418 -6.300876,-0.36423 -0.90426,0.42559 -2.05234,0.77512 -2.55127,0.77672 -0.49893,10e-4 -1.64234,0.26001 -2.54091,0.57423 -1.67588,0.58604 -7.13412,1.37073 -11.64794,1.67455 -2.42107,0.16295 -2.5806,0.13505 -3.3825,-0.59148 -0.95536,-0.86558 -2.85885,-4.73272 -5.70142,-11.58305 -3.55751,-8.57324 -3.95807,-10.09969 -2.65027,-10.09969 0.81519,0 1.86948,-0.85474 1.86948,-1.51566 0,-0.32173 -0.16491,-0.84902 -0.36646,-1.17175 -0.3208,-0.51368 -0.21928,-0.7375 0.81486,-1.79655 1.74119,-1.78314 5.93955,-4.69191 8.66898,-6.00617 2.31921,-1.11673 6.86854,-4.57018 7.83147,-5.94495 0.51909,-0.74112 0.72449,-5.17053 0.3087,-6.65731 l -0.22989,-0.82206 H 51.41039 67.707809 v 1.12541 c 0,0.61898 0.249422,1.59424 0.554272,2.16725 0.363497,0.68324 0.609672,1.94753 0.715227,3.6732 0.111113,1.81651 0.309752,2.79579 0.641452,3.16231 0.264273,0.29202 0.480495,1.03012 0.480495,1.64023 0,0.89202 0.225041,1.32988 1.148979,2.23552 0.63194,0.61943 1.391911,1.79114 1.688821,2.60381 2.230508,6.10504 4.182316,9.9339 8.143833,15.97571 2.797241,4.26616 4.262842,6.20895 7.554478,10.01418 1.42222,1.64412 3.07797,3.76279 3.67945,4.70816 0.60149,0.94537 1.27993,1.71885 1.50765,1.71885 0.71077,0 2.82664,2.57176 3.17245,3.856 0.25737,0.95581 0.50406,1.26189 1.13981,1.41424 1.65625,0.39689 2.490614,1.03973 3.053324,2.3525 0.35961,0.83891 0.89374,1.48284 1.48264,1.78737 0.50629,0.26181 2.41578,1.81839 4.24332,3.45907 1.82753,1.64068 3.67453,3.07005 4.10444,3.17638 0.42991,0.10634 0.95742,0.44063 1.17226,0.74288 0.21484,0.30225 0.6393,0.54955 0.94324,0.54955 0.30395,0 1.10308,0.45988 1.77585,1.02197 0.67277,0.56208 1.87792,1.23943 2.6781,1.5052 0.88537,0.29408 2.37762,1.25298 3.81215,2.44964 1.2965,1.08152 3.09713,2.47286 4.00139,3.09187 0.90427,0.61901 1.898,1.40824 2.20829,1.75384 0.31029,0.3456 1.03494,0.71668 1.61034,0.82462 0.57539,0.10794 1.29678,0.44687 1.60308,0.75317 0.3063,0.30631 0.84474,0.55691 1.19655,0.55691 0.3518,0 0.7927,0.20933 0.97977,0.46516 0.19374,0.26496 1.07749,0.56522 2.05332,0.69765 1.12899,0.1532 1.95712,0.46165 2.42855,0.90453 0.41612,0.39093 1.25909,0.74076 2.0152,0.83632 0.71491,0.0904 1.51818,0.35377 1.78505,0.58538 0.26687,0.23161 1.16949,0.52928 2.00582,0.66148 0.83632,0.13221 1.7077,0.39566 1.93638,0.58545 0.22869,0.18979 1.07482,0.43063 1.88029,0.53519 0.80547,0.10456 1.69523,0.3904 1.97724,0.63519 0.33853,0.29384 1.44918,0.49847 3.26858,0.60221 2.70004,0.15395 2.78139,0.18069 4.01884,1.32134 1.44733,1.3341 2.57413,1.73409 4.90242,1.74024 0.90535,0.002 2.24948,0.21442 2.98695,0.47118 1.1199,0.3899 4.12484,0.50513 18.23478,0.69922 14.80619,0.20367 17.00473,0.29298 17.7907,0.7227 1.16005,0.63425 1.86311,0.62076 3.1432,-0.0603 0.75063,-0.39937 1.94464,-0.59949 4.27188,-0.71597 2.21935,-0.11108 3.38856,-0.29919 3.73663,-0.60116 0.27863,-0.24172 1.16561,-0.52505 1.97108,-0.62961 0.80547,-0.10456 1.63837,-0.33441 1.85087,-0.51078 0.2125,-0.17636 1.21548,-0.57169 2.22883,-0.87851 1.01336,-0.30682 2.07238,-0.76592 2.35338,-1.02022 0.46283,-0.41886 0.62161,-0.40507 1.68742,0.14652 1.25502,0.64951 2.55483,0.59882 3.39888,-0.13256 0.2574,-0.22305 1.05422,-0.47964 1.77071,-0.5702 0.8207,-0.10373 1.71715,-0.49771 2.42285,-1.06483 1.00655,-0.80888 1.16665,-0.85369 1.57855,-0.44179 0.59476,0.59476 1.37791,0.3372 2.93805,-0.96626 1.62018,-1.35362 2.6292,-1.35118 4.09313,0.01 1.0941,1.01725 1.10138,1.03833 0.36106,1.04625 -1.80568,0.0193 -2.76891,1.87205 -1.43407,2.75835 0.91301,0.60622 0.53606,1.43477 -0.65276,1.43477 -1.08971,0 -2.89809,0.86862 -3.7341,1.79359 -0.32883,0.36381 -1.11901,0.92745 -1.75597,1.25254 -0.63695,0.32508 -1.69965,0.98336 -2.36156,1.46284 -0.66191,0.47948 -1.44414,0.87179 -1.73829,0.87179 -0.29416,0 -1.13204,0.51688 -1.86196,1.14862 -1.23949,1.07277 -1.48747,1.16098 -3.75526,1.33586 -1.52023,0.11724 -3.13532,0.47017 -4.31946,0.9439 -1.04023,0.41616 -2.05192,0.75665 -2.24821,0.75665 -0.19629,0 -0.92559,0.51839 -1.62067,1.15198 -0.69507,0.6336 -1.61539,1.23689 -2.04513,1.34067 -0.42974,0.10378 -1.33439,0.72539 -2.01033,1.38136 -0.67593,0.65597 -1.60225,1.27446 -2.05848,1.37442 -1.66028,0.36377 -2.49182,0.71362 -3.47067,1.46023 -0.54927,0.41894 -1.71732,0.89801 -2.59568,1.06459 -0.87835,0.16657 -1.81873,0.50352 -2.08973,0.74877 -0.27099,0.24524 -0.90899,0.4459 -1.41777,0.4459 -0.57315,0 -1.29648,0.31272 -1.90146,0.82206 -0.95324,0.80254 -1.08756,0.82565 -5.65885,0.97333 -4.92337,0.15905 -5.54446,0.33151 -5.72355,1.58929 -0.0783,0.54993 -0.34769,0.6806 -1.7368,0.84249 -0.90427,0.10539 -2.04768,0.39301 -2.54091,0.63916 -0.60415,0.30151 -2.22977,0.49872 -4.98163,0.60435 -2.84304,0.10913 -4.39018,0.30169 -5.08922,0.6334 -0.9427,0.44734 -1.07664,0.43977 -2.18118,-0.12336 -1.41291,-0.72035 -1.82407,-0.73842 -2.98835,-0.13133 -0.49043,0.25573 -2.3737,0.66851 -4.18503,0.91729 -1.89156,0.2598 -3.61142,0.66548 -4.04065,0.95312 -0.66819,0.44776 -2.15613,0.50609 -14.04975,0.55078 -7.31633,0.0275 -13.77323,-0.0559 -14.34867,-0.18521 z M 34.794102,225.09846 c -0.17066,-0.27614 -0.2759,-0.89514 -0.3698,-2.1752 -0.13064,-1.78095 -0.37697,-2.59907 -0.98772,-3.28049 -0.53211,-0.59367 -0.75023,-0.98907 -0.85018,-1.5412 -0.0533,-0.29439 -0.19364,-0.49604 -0.55168,-0.79266 -0.80127,-0.66382 -1.071,-1.39802 -1.73364,-4.71896 -0.54791,-2.74596 -0.96194,-4.02829 -1.36851,-4.23854 -0.29556,-0.15285 -0.53046,-0.61935 -0.53046,-1.0535 0,-0.12553 -0.0675,-0.32056 -0.15003,-0.4334 -0.14174,-0.1938 -0.30394,-0.20549 -2.93285,-0.21119 -2.22915,-0.005 -3.15078,-0.053 -4.63234,-0.24189 -5.87002,-0.74856 -11.0651307,-1.73088 -12.2515007,-2.31656 -0.4621,-0.22813 -0.8331,-0.91855 -0.92364,-1.71884 -0.0782,-0.69146 -0.27575,-1.12087 -0.55661,-1.21001 -0.1133,-0.036 -0.25562,-0.21768 -0.31625,-0.40382 -0.5377,-1.65073 -0.35086,-6.73256 0.24753,-6.73256 0.28669,0 0.50317,-0.41952 0.59536,-1.15377 0.10532,-0.83873 0.26388,-1.20792 0.68466,-1.59411 0.91035,-0.83553 0.55101,-1.93358 -0.68051,-2.07943 -0.3045,-0.0361 -0.6477,-0.14177 -0.76265,-0.23491 -0.27719,-0.22457 -0.40419,-0.81976 -0.40824,-1.91318 -0.007,-1.7529 -0.29192,-2.77726 -0.97856,-3.51166 -0.51461,-0.55041 -0.66483,-1.1615 -0.64363,-2.61824 0.0196,-1.34494 0.25671,-2.46357 0.71326,-3.36453 0.31284,-0.61736 0.61503,-0.86284 1.06284,-0.86339 0.39081,-4.8e-4 1.00694,-0.35827 1.00694,-0.58473 0,-0.29357 0.72835,-0.48923 2.18118,-0.58593 2.0195997,-0.13442 2.7511107,-0.32666 3.7094307,-0.97486 0.80026,-0.54129 1.52815,-0.78438 3.72699,-1.24469 1.07538,-0.22512 2.57351,-0.58187 3.32918,-0.79277 2.65608,-0.7413 3.25259,-0.88529 4.3301,-1.04529 0.59791,-0.0888 1.36636,-0.16216 1.70767,-0.16307 0.75449,-0.002 1.74149,-0.22263 2.06971,-0.46263 0.13303,-0.0973 0.40347,-0.29418 0.60098,-0.43758 0.19751,-0.14339 0.50665,-0.26097 0.68697,-0.2613 1.75694,-0.003 2.51514,-1.354 3.02645,-5.39209 0.34563,-2.72966 0.59809,-3.78494 1.01177,-4.22917 0.33954,-0.36463 0.45271,-1.04459 0.57094,-3.43061 0.12169,-2.45605 0.20805,-2.88182 0.64904,-3.20018 0.29161,-0.21052 0.41573,-0.80568 0.47875,-2.2956 0.10514,-2.48556 -0.16537,-3.19519 -1.90093,-4.98676 -1.81435,-1.87289 -3.00371,-2.65606 -4.36274,-2.87278 -1.0955,-0.17469 -1.81354,-0.57061 -2.97451,-1.64012 -0.83898,-0.77287 -1.40254,-1.1043 -2.22143,-1.30638 -0.73826,-0.18218 -1.05853,-0.43286 -1.95006,-1.52633 -0.45569,-0.5589 -0.8694,-0.78019 -1.703,-0.91091 -0.63871,-0.10016 -1.02375,-0.35164 -1.02375,-0.66863 0,-0.23613 -0.35203,-0.46838 -0.8455,-0.5578 -0.20345,-0.0369 -0.73529,-0.31568 -1.18186,-0.61957 -1.06441,-0.72433 -3.57235,-2.9149 -3.51712,-3.07203 0.0237,-0.0675 0.73546,-2.23911 1.58164,-4.82582 2.57818,-7.88131 4.42912,-13.09478 4.71085,-13.26891 0.17332,-0.10711 0.41342,-0.79366 0.48219,-1.37876 0.0819,-0.697 0.33355,-1.12254 0.86048,-1.45518 0.55829,-0.35243 0.74974,-0.68522 0.92692,-1.61125 0.18608,-0.97258 0.22287,-1.04272 0.85904,-1.63779 1.06518,-0.99635 2.61719,-1.40044 3.36299,-0.87561 0.6714,0.4725 1.64737,0.64189 4.49173,0.77962 2.40222,0.11633 2.94071,0.20716 3.49583,0.58969 0.46323,0.3192 1.59099,0.56961 2.58123,0.57313 0.99727,0.004 2.03409,0.1801 2.48367,0.42293 1.13173,0.61125 1.23833,0.6404 2.71824,0.74313 1.88532,0.13088 2.40193,0.25262 2.6701,0.62923 0.28791,0.40433 0.88044,0.53089 2.48555,0.53089 1.966847,0 3.454154,-0.26194 4.237974,-0.74636 0.506711,-0.31317 0.937615,-0.98581 1.141597,-1.78202 0.200757,-0.78364 0.430942,-1.1877 1.180911,-2.07296 0.735875,-0.86863 1.084061,-1.41364 1.166525,-1.82597 0.04223,-0.21114 0.310359,-0.61272 0.685485,-1.02666 0.779736,-0.86041 0.929605,-1.1561 1.110173,-2.19042 0.177927,-1.01919 0.672894,-2.00732 1.476014,-2.94664 1.369945,-1.602275 1.890714,-2.292235 2.119863,-2.808575 0.172486,-0.38867 0.346202,-0.60209 0.591053,-0.72614 0.723428,-0.36652 0.99026,-0.76614 1.144548,-1.71412 0.109621,-0.67354 -0.02453,-1.76743 -0.276497,-2.25469 -0.08657,-0.16741 -0.348003,-0.4247 -0.580966,-0.57176 -0.517799,-0.32687 -0.790927,-0.75538 -0.875701,-1.37387 -0.09191,-0.67054 -0.580484,-1.55998 -1.383822,-2.5192 -0.974277,-1.16332 -2.595283,-3.54006 -2.595283,-3.80524 0,-0.036 14.707803,-0.0642 32.68401,-0.0626 l 32.684004,0.003 -0.38635,0.35933 c -0.41903,0.38973 -0.95736,0.58429 -1.62172,0.58615 -0.74296,0.002 -1.2106,0.19113 -1.44174,0.58289 -0.2312,0.39184 -0.93182,0.89317 -1.99312,1.42616 -1.14753,0.57631 -1.9099,1.146 -2.90642,2.1719 -0.78094,0.80396 -1.03631,1.0014 -1.42679,1.10307 -1.34622,0.35052 -2.26312,1.02814 -5.04703,3.72996 -2.18548,2.12104 -3.12116,2.87202 -3.69601,2.96641 -0.82091,0.1348 -2.06033,1.41286 -2.19881,2.26737 -0.12294,0.758585 -0.39512,1.306965 -0.94397,1.901885 -0.594754,0.64467 -0.902424,1.15142 -0.902424,1.48634 0,0.5086 -0.30985,0.76273 -1.10607,0.90718 -0.65805,0.11938 -0.99579,0.33771 -1.95888,1.26634 -0.89658,0.86449 -1.19327,1.04482 -1.91456,1.16367 -1.16976,0.19274 -2.83374,2.23324 -2.84302,3.48634 -0.002,0.31741 -0.14824,0.50142 -0.54548,0.68801 -0.29211,0.13721 -0.38496,0.27173 -0.55148,0.79899 -0.47492,1.50375 -0.72992,1.83081 -1.63768,2.10038 -0.84597,0.25123 -1.4034,0.59248 -2.07396,1.26966 -1.09488,1.10568 -1.733567,2.65979 -1.742252,4.23936 -0.0048,0.86838 -0.233932,1.7708 -0.574445,2.26216 -0.156445,0.22575 -0.570244,0.63969 -0.919555,0.91986 -0.779108,0.6249 -1.297992,1.31475 -1.4621,1.94385 -0.179099,0.68657 -0.705741,1.43163 -1.902788,2.69195 -1.045542,1.1008 -1.69069,2.0281 -1.693353,2.43392 -0.0025,0.37938 -0.420435,0.93306 -1.515779,2.00807 -1.125227,1.10433 -1.328506,1.43212 -1.541779,2.48614 -0.08764,0.43314 -0.223352,0.69889 -0.525975,1.02995 -0.413987,0.4529 -0.641097,1.06096 -0.648328,1.73584 -0.0047,0.44256 -0.203414,0.80369 -0.532323,0.96764 -0.363065,0.18096 -0.520551,0.57757 -0.626149,1.57687 -0.153883,1.45623 -0.408704,1.99023 -1.570701,3.2915 -0.879183,0.98456 -1.271041,1.74897 -1.407752,2.74615 -0.106527,0.77702 -0.422712,1.6492 -0.59787,1.6492 -0.285749,0 -0.651546,1.81056 -0.651546,3.22492 0,0.78944 -0.259267,1.8258 -0.52844,2.11232 -0.336661,0.35836 -0.530503,1.38251 -0.630118,3.32917 -0.107954,2.1096 -0.223406,2.74917 -0.593091,3.28553 -0.381991,0.55421 -0.469595,0.94037 -0.575831,2.53826 -0.119476,1.79704 -0.303199,2.35043 -0.917265,2.76284 -0.675531,0.45369 -0.869892,1.36103 -0.87739,4.09593 -0.0052,1.89547 -0.154774,4.0487 -0.325219,4.68168 -0.06501,0.24144 -0.211604,0.50439 -0.325762,0.58435 -0.322068,0.22559 -0.422974,0.59686 -0.565113,2.07928 -0.135293,1.41102 -0.21466,1.70961 -0.575906,2.1666 -0.155868,0.19719 -0.236464,0.54578 -0.31766,1.37395 -0.298661,3.04621 -0.410676,12.71167 -0.215572,18.60108 0.134178,4.05032 0.26306,5.39174 0.583874,6.07706 0.316098,0.67525 0.44158,1.44585 0.524898,3.22348 0.08559,1.82618 0.227852,2.66281 0.527991,3.10508 0.459498,0.67711 0.561239,1.22595 0.683285,3.6859 0.09625,1.94009 0.252701,2.65537 0.641361,2.93232 0.937476,0.66801 1.019851,0.95938 1.154032,4.0819 0.108611,2.52746 0.21729,3.23541 0.578359,3.76748 0.130979,0.193 0.291283,0.50336 0.35623,0.68966 l 0.118086,0.33874 H 51.284296 c -11.179844,0 -16.444274,-0.0348 -16.490194,-0.10913 z m 91.055738,113.88898 c -0.54544,-0.65722 -1.99301,-0.8968 -5.41868,-0.8968 -2.57091,0 -4.84067,-0.26903 -5.0439,-0.59786 -0.20322,-0.32882 -1.04543,-0.59786 -1.87157,-0.59786 -2.49313,0 -3.21025,-1.29037 -3.21025,-5.77649 v -4.06831 l -3.35639,-3.14873 c -1.84602,-1.7318 -3.66989,-3.14873 -4.05305,-3.14873 -0.38316,0 -1.08447,-0.53807 -1.55848,-1.19572 -0.6091,-0.84508 -1.547684,-1.19572 -3.200634,-1.19572 -1.64119,0 -2.66781,-0.37936 -3.44184,-1.27182 -0.85434,-0.98506 -1.74492,-1.25893 -3.94991,-1.21467 -1.56578,0.0315 -2.9394,0.33471 -3.05247,0.67395 -0.11308,0.33925 -0.72126,0.61681 -1.35151,0.61681 -0.63024,0 -1.145899,0.26904 -1.145899,0.59786 0,0.32883 -0.362221,0.59787 -0.804937,0.59787 -1.198664,0 -4.575816,1.7973 -4.575816,2.43523 0,0.30474 -0.522196,0.55407 -1.160437,0.55407 -0.638241,0 -1.326715,0.26904 -1.52994,0.59786 -0.203225,0.32883 -1.429774,0.59787 -2.725662,0.59787 -1.295889,0 -2.35616,0.26903 -2.35616,0.59786 0,0.32882 -1.14341,0.59221 -2.540911,0.58532 -2.098093,-0.0104 -3.37445,-0.5903 -7.323803,-3.32771 -2.63059,-1.82335 -5.791783,-4.00576 -7.024872,-4.8498 -1.242268,-0.85033 -2.24198,-2.03238 -2.24198,-2.65091 0,-0.61395 -0.269038,-1.11627 -0.597862,-1.11627 -0.328824,0 -0.597861,-1.19479 -0.597861,-2.65509 0,-1.4603 0.269037,-2.82137 0.597861,-3.02459 0.328824,-0.20323 0.597862,-0.8917 0.597862,-1.52994 0,-0.63824 0.269037,-1.16044 0.597861,-1.16044 0.328824,0 0.597862,-0.48463 0.597862,-1.07696 0,-0.59234 1.210669,-2.23081 2.690376,-3.64106 2.174801,-2.07272 2.690377,-2.95998 2.690377,-4.6299 0,-1.40637 0.477111,-2.54291 1.494653,-3.56045 1.753687,-1.75369 2.139268,-6.01337 0.597862,-6.60485 -0.493236,-0.18928 -0.896793,-0.82205 -0.896793,-1.40617 0,-0.58411 -0.538075,-1.20273 -1.195722,-1.37471 -0.677364,-0.17714 -1.195723,-0.81549 -1.195723,-1.47253 0,-1.47785 -1.387677,-4.26956 -2.962505,-5.95994 -0.672389,-0.72172 -1.222525,-1.61173 -1.222525,-1.9778 0,-0.93946 -1.167112,-1.98326 -3.529558,-3.15663 -2.474952,-1.22925 -4.165152,-1.25737 -5.702102,-0.0949 -0.63829,0.48278 -2.05073,0.87778 -3.13877,0.87778 -1.08803,0 -1.97825,0.21853 -1.97825,0.48562 0,0.26708 -3.28063,0.8504 -7.29029,1.29625 -5.51862,0.61364 -7.34686,0.64091 -7.52309,0.11224 -0.12804,-0.38411 -0.54667,-0.70364 -0.9303,-0.71005 -0.66573,-0.0111 -8.77439,-19.20826 -8.7705,-20.76403 0.001,-0.41103 0.54838,-0.74732 1.21635,-0.74732 1.48122,0 2.26816,-1.71655 1.11461,-2.43131 -0.65322,-0.40475 -0.37999,-0.91678 1.25807,-2.35766 2.80741,-2.46947 8.12619,-5.97024 9.08867,-5.98209 0.42683,-0.005 1.63464,-0.7451 2.68403,-1.64411 1.0494,-0.89902 2.58392,-2.17265 3.41006,-2.8303 1.28025,-1.01914 1.50616,-1.69819 1.52972,-4.59814 0.0152,-1.87133 -0.24139,-3.56869 -0.57022,-3.77192 -0.32882,-0.20322 -0.59786,-1.39683 -0.59786,-2.65245 0,-1.29994 -0.38615,-2.60344 -0.89679,-3.02723 -0.49324,-0.40935 -0.89679,-1.0861 -0.89679,-1.5039 0,-0.41779 -0.35959,-0.8976 -0.79909,-1.06626 -0.45409,-0.17425 -1.09139,-2.07058 -1.47611,-4.39227 -0.37235,-2.24711 -0.95439,-4.17811 -1.29342,-4.29111 -0.33903,-0.11301 -0.61641,-0.61487 -0.61641,-1.11524 0,-0.71861 -0.53389,-0.84699 -2.54091,-0.61096 -2.79483,0.32866 -16.4456807,-1.77462 -17.6369207,-2.71745 -0.41103,-0.32531 -0.74732,-1.09662 -0.74732,-1.714 0,-0.61738 -0.26904,-1.12252 -0.59787,-1.12252 -0.33214,0 -0.59786,-1.5943 -0.59786,-3.58717 0,-1.99287 0.26572,-3.58717 0.59786,-3.58717 0.32883,0 0.59787,-0.52219 0.59787,-1.16043 0,-0.63824 0.26903,-1.32672 0.59786,-1.52994 1.05199,-0.65017 0.63989,-2.09252 -0.59786,-2.09252 -1.00317,0 -1.19573,-0.39857 -1.19573,-2.475 0,-1.55449 -0.3476,-2.72917 -0.9346,-3.1584 -1.42172,-1.03959 -0.56203,-6.92169 1.01163,-6.92169 0.61528,0 1.1187,-0.26903 1.1187,-0.59786 0,-0.32882 1.09536,-0.59786 2.43415,-0.59786 1.3387797,0 2.8131507,-0.37901 3.2763907,-0.84224 0.46323,-0.46323 1.99098,-1.02536 3.395,-1.24917 1.40401,-0.22381 3.70557,-0.78643 5.11456,-1.25028 1.40899,-0.46384 3.47816,-0.84334 4.59814,-0.84334 1.11999,0 2.20261,-0.26904 2.40584,-0.59786 0.20322,-0.32883 0.77639,-0.59786 1.27371,-0.59786 1.6612,0 2.44263,-1.50913 2.87578,-5.55386 0.2363,-2.20656 0.67726,-4.01193 0.97992,-4.01193 0.30265,0 0.55027,-1.4797 0.55027,-3.28823 0,-1.80853 0.26904,-3.28824 0.59786,-3.28824 0.32883,0 0.59786,-1.23177 0.59786,-2.73726 0,-2.3958 -0.29542,-3.02974 -2.36811,-5.08183 -1.45118,-1.43675 -2.93157,-2.34456 -3.82334,-2.34456 -0.80038,0 -2.08881,-0.66795 -2.86318,-1.48432 -0.77437,-0.81638 -1.86929,-1.48897 -2.43316,-1.49465 -0.56388,-0.006 -1.3132,-0.54841 -1.66516,-1.20606 -0.35196,-0.65764 -1.16854,-1.19572 -1.81462,-1.19572 -0.64608,0 -1.17468,-0.26904 -1.17468,-0.59786 0,-0.32882 -0.3363,-0.60216 -0.74733,-0.60741 -0.41103,-0.005 -1.67667,-0.82853 -2.81254,-1.82951 l -2.0652,-1.81996 2.88216,-8.78253 c 1.58519,-4.83039 3.11986,-9.03812 3.41039,-9.3505 0.29053,-0.31238 0.52824,-1.02346 0.52824,-1.58016 0,-0.5567 0.40355,-1.16704 0.89679,-1.35632 0.49324,-0.18927 0.89679,-0.95949 0.89679,-1.7116 0,-1.68237 3.25673,-3.42467 4.35275,-2.32865 0.36811,0.36811 2.21383,0.66929 4.1016,0.66929 1.88777,0 3.59859,0.26904 3.80181,0.59786 0.20323,0.32882 1.4139,0.59786 2.69038,0.59786 1.27648,0 2.48715,0.26904 2.69038,0.59786 0.20322,0.32883 1.42977,0.59787 2.72566,0.59787 1.29588,0 2.35616,0.26903 2.35616,0.59786 0,0.8822 5.50786,0.69026 6.725939,-0.23439 0.575442,-0.43683 1.046258,-1.18465 1.046258,-1.66184 0,-0.47719 0.538075,-1.44517 1.195723,-2.15107 0.657647,-0.7059 1.195722,-1.5308 1.195722,-1.83311 0,-0.30231 0.403557,-0.88458 0.896793,-1.29393 0.493235,-0.40935 0.896792,-1.34402 0.896792,-2.07705 0,-0.73302 0.807113,-2.17734 1.793584,-3.209585 0.986471,-1.03225 1.793584,-2.11952 1.793584,-2.41615 0,-0.29664 0.403557,-0.6942 0.896793,-0.88348 1.188051,-0.45589 1.188051,-3.89458 0,-4.35048 -0.493236,-0.18928 -0.896793,-0.80269 -0.896793,-1.36316 0,-0.56046 -0.53603,-1.59438 -1.191178,-2.2976 -1.400923,-1.50371 -3.151918,-4.33482 -4.617864,-7.46641 -0.577227,-1.23309 -1.255076,-2.24198 -1.50633,-2.24198 -0.251255,0 -0.457155,-0.47082 -0.457556,-1.04626 -4.02e-4,-0.57544 -0.643444,-1.79357 -1.428982,-2.70695 -0.785539,-0.91337 -1.775214,-2.49831 -2.199275,-3.5221 -0.73789,-1.78141 -0.6788,-1.94595 1.37463,-3.82778 1.49797,-1.37278 2.52301,-1.86767 3.395732,-1.63945 1.01018,0.26417 1.25007,0.0532 1.25007,-1.09923 0,-1.00853 1.710061,-3.12978 5.839846,-7.24407 3.211914,-3.19986 6.246456,-5.81793 6.743422,-5.81793 0.496966,0 1.291399,0.53808 1.765407,1.19572 0.474009,0.65765 1.31227,1.19573 1.862817,1.19573 0.550541,0 1.634559,0.66794 2.408927,1.48432 0.774368,0.81638 1.72611,1.48897 2.114977,1.49465 0.388873,0.006 0.877816,0.54841 1.086547,1.20606 0.262736,0.82781 0.904582,1.19572 2.086016,1.19572 1.029572,0 3.297996,1.06721 5.718563,2.69038 3.22938,2.16553 4.52145,2.69037 6.62326,2.69037 2.21264,0 2.61121,-0.18251 2.61121,-1.19572 0,-0.65765 0.26904,-1.19572 0.59786,-1.19572 0.32883,0 0.59787,-0.40356 0.59787,-0.8968 0,-0.65743 0.68284,-0.89679 2.55839,-0.89679 1.85601,0 2.790504,-0.32203 3.403834,-1.17299 0.61614,-0.85484 1.05022,-1.00304 1.60045,-0.54639 0.95744,0.7946 2.18822,0.0748 1.7637,-1.03147 -0.22154,-0.57733 0.13612,-0.83632 1.15496,-0.83632 0.91333,0 1.47589,-0.34183 1.47589,-0.89679 0,-0.49323 0.40356,-0.89679 0.8968,-0.89679 1.32544,0 1.32544,-12.26267 0,-12.77129 -0.49324,-0.18928 -0.8968,-0.89065 -0.8968,-1.55862 0,-0.66797 -0.24307,-1.21449 -0.54016,-1.21449 -0.5122,0 -0.74752,-1.44818 -1.60698,-9.89008 -0.35453,-3.48225 -0.31065,-3.63857 1.21673,-4.33449 0.8715,-0.39708 2.10995,-0.72196 2.75213,-0.72196 0.64217,0 1.16759,-0.2364 1.16759,-0.52533 0,-0.28893 0.87437,-0.85855 1.94305,-1.26582 3.36393,-1.28199 6.09109,-2.43154 7.16623,-3.02071 0.57098,-0.31289 1.71439,-0.5689 2.54091,-0.5689 0.82652,0 1.50276,-0.26904 1.50276,-0.59786 0,-0.32882 0.3363,-0.59711 0.74733,-0.5962 0.41103,9e-4 1.87639,-0.59635 3.25635,-1.32725 1.37997,-0.7309 2.60494,-1.20246 2.72216,-1.04792 1.09584,1.44481 10.85782,17.16652 11.65989,18.7783 0.59021,1.18605 1.49998,2.10589 2.09103,2.1142 0.57544,0.008 1.04626,0.28375 1.04626,0.61258 0,0.35135 2.08075,0.59786 5.04653,0.59786 2.7756,0 5.21282,-0.26904 5.41604,-0.59786 0.20323,-0.32883 1.68293,-0.59787 3.28824,-0.59787 1.6053,0 3.08501,-0.26903 3.28824,-0.59786 0.20322,-0.32882 1.11903,-0.59786 2.03513,-0.59786 2.04956,0 3.64455,-1.65589 3.64455,-3.78371 0,-0.87837 0.26904,-1.59704 0.59786,-1.59704 0.32883,0 0.59786,-0.5222 0.59786,-1.16044 0,-0.63824 0.26904,-1.32671 0.59786,-1.52994 0.32883,-0.20322 0.59787,-1.25392 0.59787,-2.33487 0,-1.96992 1.37919,-5.40958 2.4293,-6.05859 0.308,-0.19035 0.56856,-2.14622 0.57902,-4.34638 0.0193,-4.06256 0.83763,-6.0927905 2.45582,-6.0927905 0.4666,0 1.23618,-0.53808 1.71019,-1.19573 0.80612,-1.118431 1.54768,-1.195719 11.47259,-1.195719 9.01775,0 10.56087,0.129995 10.27849,0.865869 -0.18274,0.47623 0.22926,1.46859 0.91556,2.20525 0.6863,0.7366605 1.24782,1.8267205 1.24782,2.4223705 0,0.59564 0.37218,1.08299 0.82706,1.08299 1.00224,0 1.54528,1.82544 1.55623,5.23128 0.005,1.39751 0.25784,2.54092 0.563,2.54092 0.30516,0 0.7219,1.54696 0.92608,3.4377 0.20418,1.89074 0.62709,3.90487 0.93981,4.47585 0.31271,0.57098 0.57713,1.91616 0.58759,2.9893 0.0217,2.22922 1.16708,4.04368 2.55252,4.04368 0.51978,0 1.11134,0.26904 1.31456,0.59786 0.20323,0.32883 2.64045,0.59786 5.41604,0.59786 2.96578,0 5.04654,0.24651 5.04654,0.59787 0,0.34534 1.83073,0.58983 4.33449,0.57884 4.47692,-0.0196 6.42701,-0.79413 6.42701,-2.55252 0,-0.51979 0.26904,-1.11134 0.59787,-1.31456 0.32882,-0.20323 0.59786,-0.8917 0.59786,-1.52994 0,-0.63824 0.26904,-1.16044 0.59786,-1.16044 0.32882,0 0.59786,-0.3617 0.59786,-0.80379 0,-0.44208 1.47971,-2.33154 3.28824,-4.19878 1.80853,-1.86725 3.28824,-3.68933 3.28824,-4.04907 0,-0.80842 4.56013,-5.29703 5.38143,-5.29703 0.32845,0 0.59718,0.26903 0.59718,0.59786 0,0.32882 1.21067,0.59786 2.69038,0.59786 1.4797,0 2.69037,0.26904 2.69037,0.59786 0,0.32882 0.80712,0.59786 1.79359,0.59786 0.98647,0 1.79358,0.26904 1.79358,0.59786 0,0.32883 1.1047,0.59787 2.45487,0.59787 1.90643,0 2.71753,0.33391 3.63056,1.49465 0.64664,0.82206 1.69424,1.49465 2.32803,1.49465 0.63378,0 1.15233,0.25199 1.15233,0.55998 0,0.30799 0.87437,0.64429 1.94305,0.74733 1.86988,0.18029 1.95,0.29667 2.12786,3.09052 0.12677,1.99149 -0.10535,3.2238 -0.73917,3.92416 -0.65814,0.72724 -0.73933,1.20562 -0.28218,1.66277 0.45714,0.45715 0.4548,0.75736 -0.008,1.04348 -0.35745,0.22094 -0.64993,1.71513 -0.64993,3.32044 0,1.6053 -0.26904,3.08501 -0.59786,3.28824 -0.34004,0.21015 -0.59786,3.21013 -0.59786,6.95667 0,6.48342 0.0275,6.61471 1.7476,8.33478 1.00612,1.00613 2.38628,1.7476 3.25295,1.7476 0.82795,0 1.67163,0.26903 1.87486,0.59786 0.20322,0.32882 0.85541,0.59786 1.44931,0.59786 1.466,0 4.1986,2.23004 4.85808,3.96461 0.45998,1.20984 0.94406,1.41614 3.32293,1.41614 1.9673,0 3.06829,-0.32582 3.75143,-1.1102 0.53181,-0.61061 1.57225,-1.30133 2.31211,-1.53494 0.73985,-0.23361 1.34519,-0.67565 1.34519,-0.98232 0,-0.30666 0.78469,-0.55757 1.74376,-0.55757 0.95907,0 1.84759,-0.31149 1.97449,-0.6922 0.12691,-0.38071 1.09096,-0.66774 2.14234,-0.63785 1.26159,0.0359 1.91161,-0.2289 1.91161,-0.77866 0,-1.56559 5.72995,-6.76038 7.86024,-7.12611 1.85629,-0.3187 2.35181,-0.0122 6.70307,4.14641 2.58424,2.4698 4.93832,4.49055 5.23129,4.49055 0.29298,0 0.53268,0.34737 0.53268,0.77193 0,0.87666 4.50835,5.20669 5.42111,5.20669 0.3288,0 1.4113,0.83219 2.40558,1.84931 2.07434,2.12203 2.23477,4.865 0.30596,5.23122 -1.62156,0.30789 -3.94762,2.81309 -3.94762,4.25166 0,0.84255 -0.3893,1.2229 -1.25169,1.2229 -0.74889,0 -1.3773,0.48032 -1.56438,1.19572 -0.17198,0.65765 -0.55035,1.19572 -0.84082,1.19572 -0.29047,0 -0.52814,0.6726 -0.52814,1.49465 0,0.82206 -0.26903,1.49466 -0.59786,1.49466 -0.32882,0 -0.59786,0.53807 -0.59786,1.19572 0,0.65765 -0.26904,1.19572 -0.59786,1.19572 -0.32882,0 -0.59786,0.51855 -0.59786,1.15233 0,0.63379 -0.6726,1.68139 -1.49465,2.32803 -2.11766,1.66574 -2.11766,5.66987 0,7.63244 0.82205,0.76186 1.49465,1.8016 1.49465,2.31054 0,0.508925 0.26904,0.925335 0.59786,0.925335 0.32882,0 0.59786,0.94163 0.59786,2.09251 0,1.15089 0.26904,2.09252 0.59786,2.09252 0.32883,0 0.59786,0.53807 0.59786,1.19572 0,0.87687 0.39858,1.19573 1.49466,1.19573 1.10715,0 1.49465,0.31704 1.49465,1.22289 0,1.97734 2.63233,4.15786 5.01937,4.15786 1.14642,0 2.25067,-0.26904 2.4539,-0.59786 0.20322,-0.32883 1.42977,-0.59786 2.72566,-0.59786 1.29589,0 2.35616,-0.26904 2.35616,-0.59787 0,-0.32882 1.46383,-0.59786 3.25295,-0.59786 1.78913,0 3.41923,-0.26904 3.62246,-0.59786 0.20322,-0.32882 2.22352,-0.59786 4.48954,-0.59786 3.29312,0 4.24234,-0.20999 4.72942,-1.04626 0.33517,-0.57544 0.61758,-0.74986 0.62757,-0.3876 0.01,0.36226 0.8253,1.50322 1.81177,2.53547 0.98647,1.03225 1.79358,2.2604 1.79358,2.72923 0,0.46882 0.27541,0.94421 0.61202,1.05641 0.33661,0.11221 0.7688,1.54708 0.96042,3.1886 0.19162,1.64152 0.58881,3.24017 0.88264,3.55255 0.29382,0.31239 0.53423,0.99285 0.53423,1.51214 0,0.51929 0.53807,1.33199 1.19572,1.806 0.65765,0.474 1.19572,1.30282 1.19572,1.84182 0,0.539 0.6726,1.48509 1.49466,2.10244 2.87295,2.15749 1.49243,6.15559 -2.14096,6.20037 -1.02218,0.0126 -1.81312,0.52357 -2.343,1.51366 -0.50203,0.93806 -1.31889,1.49466 -2.19354,1.49466 -0.7665,0 -1.39363,0.26904 -1.39363,0.59786 0,0.32882 -0.42599,0.59786 -0.94664,0.59786 -0.52065,0 -1.86108,0.94163 -2.97874,2.09252 -1.26176,1.29926 -2.60272,2.09251 -3.53733,2.09251 -0.82787,0 -1.50521,0.26904 -1.50521,0.59786 0,0.32883 -0.94164,0.59786 -2.09252,0.59786 -1.15088,0 -2.09251,0.26904 -2.09251,0.59786 0,0.32883 -0.78759,0.59787 -1.7502,0.59787 -1.15477,0 -2.15016,0.50848 -2.92588,1.49465 -0.64664,0.82206 -1.63298,1.49465 -2.19188,1.49465 -0.5589,0 -1.15689,0.53808 -1.32887,1.19573 -0.24498,0.93677 -0.8155,1.19572 -2.63441,1.19572 -1.27694,0 -2.32172,0.26904 -2.32172,0.59786 0,0.32882 -0.51854,0.59786 -1.15233,0.59786 -0.63378,0 -1.68139,0.6726 -2.32802,1.49466 -0.76874,0.9773 -1.77278,1.49465 -2.90072,1.49465 -1.03917,0 -2.06767,0.47541 -2.58685,1.19572 -0.67572,0.93753 -1.54767,1.19573 -4.03801,1.19573 -2.82695,0 -3.40406,-0.22789 -5.24877,-2.07259 -1.13992,-1.13992 -2.07258,-2.49356 -2.07258,-3.00807 0,-0.51452 -0.40356,-1.09035 -0.8968,-1.27962 -0.50523,-0.19388 -0.89679,-1.08391 -0.89679,-2.03846 0,-0.93189 -0.26904,-1.86061 -0.59786,-2.06384 -0.32882,-0.20323 -0.59786,-1.16074 -0.59786,-2.1278 0,-0.96707 -0.26904,-1.7583 -0.59786,-1.7583 -0.32883,0 -0.59786,-0.94163 -0.59786,-2.09251 0,-1.15089 -0.26904,-2.09252 -0.59787,-2.09252 -0.32882,0 -0.59786,-0.53807 -0.59786,-1.19572 0,-0.65765 -0.23987,-1.19573 -0.53304,-1.19573 -0.29318,0 -0.70186,-0.67259 -0.90819,-1.49465 -0.20632,-0.82206 -0.63904,-1.49465 -0.9616,-1.49465 -0.32256,0 -0.58647,-0.53808 -0.58647,-1.19573 0,-0.65764 -0.26904,-1.19572 -0.59787,-1.19572 -0.32882,0 -0.59786,-0.57378 -0.59786,-1.27506 0,-0.70128 -0.51481,-1.72156 -1.14403,-2.26727 -0.62921,-0.54572 -1.23455,-1.78565 -1.34519,-2.75539 -0.13241,-1.16058 -0.5888,-1.83679 -1.33536,-1.97853 -1.25365,-0.23804 -3.94762,-2.69843 -3.94762,-3.60535 0,-0.86123 -2.02424,-4.25252 -2.54091,-4.25688 -0.24662,-0.002 -0.44839,-0.50195 -0.44839,-1.11083 0,-1.00799 -1.55035,-2.90977 -4.54869,-5.57978 -0.62205,-0.55393 -2.02811,-1.96638 -3.12458,-3.13878 -1.09648,-1.17238 -2.23989,-2.13162 -2.54092,-2.13162 -0.30102,0 -0.54732,-0.55729 -0.54732,-1.23842 0,-1.319955 -1.29283,-2.946605 -2.34191,-2.946605 -0.76375,0 -2.65912,-1.50247 -4.71378,-3.73663 -0.83161,-0.90427 -1.8312,-1.64412 -2.22131,-1.64412 -0.39012,0 -1.62031,-0.87437 -2.73377,-1.94305 -2.20474,-2.11607 -4.39399,-3.4377 -5.69448,-3.4377 -0.45565,0 -0.82845,-0.26904 -0.82845,-0.59786 0,-0.32883 -0.40589,-0.59787 -0.90197,-0.59787 -1.32857,0 -4.47879,-3.0131 -4.47879,-4.28385 0,-0.81531 -0.45138,-1.0969 -1.7583,-1.0969 -0.96706,0 -1.92457,-0.26904 -2.1278,-0.59786 -0.20322,-0.32882 -0.8917,-0.59786 -1.52994,-0.59786 -0.63824,0 -1.16043,-0.26904 -1.16043,-0.59786 0,-0.32883 -0.81556,-0.59786 -1.81235,-0.59786 -1.05946,0 -1.95531,-0.37256 -2.15648,-0.8968 -0.18928,-0.49323 -0.73016,-0.89679 -1.20196,-0.89679 -0.47181,0 -1.43538,-0.53807 -2.14128,-1.19572 -0.70591,-0.65765 -2.03984,-1.19572 -2.96431,-1.19572 -0.92447,0 -1.68085,-0.26904 -1.68085,-0.59787 0,-0.32882 -0.91285,-0.59786 -2.02855,-0.59786 -1.25164,0 -2.16035,-0.34346 -2.37269,-0.89679 -0.22714,-0.59194 -1.16345,-0.89679 -2.75434,-0.89679 -1.32561,0 -2.41021,-0.26904 -2.41021,-0.59786 0,-0.32883 -1.42031,-0.59786 -3.15625,-0.59786 -2.4704,0 -3.34353,-0.25984 -4.01808,-1.19573 -0.47401,-0.65765 -1.45261,-1.19572 -2.17468,-1.19572 -0.72206,0 -1.42486,-0.3363 -1.56175,-0.74733 -0.19312,-0.57983 -5.18439,-0.74732 -22.26971,-0.74732 -17.08487,0 -22.07678,0.16751 -22.27054,0.74732 -0.13736,0.41103 -0.7654,0.74733 -1.39564,0.74733 -0.63025,0 -1.14591,0.26904 -1.14591,0.59786 0,0.32882 -1.46382,0.59786 -3.25295,0.59786 -1.78912,0 -3.41923,0.26904 -3.62245,0.59786 -0.20323,0.32883 -1.69881,0.59787 -3.32353,0.59787 -1.899,0 -2.95402,0.25623 -2.95402,0.71743 0,0.558 -0.15943,0.558 -0.71743,0 -1.12121,-1.12121 -2.53609,-0.85072 -4.06546,0.77722 -0.85526,0.91038 -2.06455,1.49465 -3.09352,1.49465 -0.94804,0 -1.69339,0.32795 -1.69852,0.74733 -0.006,0.51228 -0.18209,0.47396 -0.55899,-0.12184 -0.47124,-0.74495 -0.76897,-0.75188 -2.08335,-0.0484 -0.84345,0.45139 -1.53354,1.04429 -1.53354,1.31755 0,0.27326 -0.51566,0.49683 -1.1459,0.49683 -0.63025,0 -1.26769,0.3363 -1.41654,0.74733 -0.21354,0.58965 -0.55561,0.57846 -1.62124,-0.053 -1.23723,-0.73315 -1.52551,-0.62024 -3.43453,1.34519 -1.14617,1.18006 -2.59133,2.14554 -3.21148,2.14554 -0.62015,0 -1.12754,0.26904 -1.12754,0.59787 0,0.32882 -0.41481,0.59786 -0.92179,0.59786 -1.09083,0 -2.91748,1.66297 -3.44769,3.13877 -0.22342,0.6219 -0.98972,1.04626 -1.8893,1.04626 -0.83238,0 -1.51342,0.23838 -1.51342,0.52974 0,0.29135 -0.94959,0.98035 -2.11021,1.5311 -1.16062,0.55075 -2.436,1.52303 -2.83419,2.16063 -0.39819,0.6376 -1.21486,1.15928 -1.81481,1.15928 -0.59996,0 -2.524,1.47971 -4.27564,3.28824 -1.75164,1.80853 -3.50209,3.28824 -3.88988,3.28824 -0.97865,0 -2.41325,1.53044 -2.41325,2.57447 0,0.476455 -0.40356,1.201205 -0.89679,1.610555 -0.493244,0.40935 -0.896794,1.11489 -0.896794,1.56786 0,0.45297 -0.47869,0.82359 -1.06374,0.82359 -0.58506,0 -1.45156,0.53807 -1.92557,1.19572 -0.47401,0.65765 -1.28072,1.19572 -1.7927,1.19572 -1.12286,0 -2.99019,2.05773 -2.99019,3.29507 0,0.48948 -0.25033,0.88996 -0.55628,0.88996 -0.30596,0 -0.64226,0.60259 -0.74733,1.33908 -0.10626,0.74482 -0.69439,1.4351 -1.32526,1.55543 -2.12035,0.40446 -3.947609,2.8607 -3.947609,5.30648 0,1.7306 -0.35852,2.54595 -1.494654,3.39915 -0.822059,0.61735 -1.494654,1.51489 -1.494654,1.99455 0,0.47966 -0.807112,1.62607 -1.793584,2.54757 -0.986471,0.9215 -1.793584,2.06791 -1.793584,2.54757 0,0.47966 -0.672594,1.37721 -1.494654,1.99455 -0.822059,0.61734 -1.494653,1.58078 -1.494653,2.14097 0,0.5602 -0.269038,1.18482 -0.597862,1.38804 -0.328824,0.20323 -0.597861,0.8917 -0.597861,1.52994 0,0.63824 -0.269038,1.16044 -0.597862,1.16044 -0.328824,0 -0.597861,0.76021 -0.597861,1.68937 0,1.02897 -0.584272,2.23826 -1.494654,3.09352 -0.822059,0.77229 -1.494653,2.01397 -1.494653,2.75931 0,0.74533 -0.269038,1.52142 -0.597862,1.72465 -0.328824,0.20323 -0.597861,1.41389 -0.597861,2.69038 0,1.27648 -0.269038,2.48715 -0.597862,2.69037 -0.328824,0.20323 -0.597861,1.68294 -0.597861,3.28824 0,1.60531 -0.269038,3.08501 -0.597862,3.28824 -0.328823,0.20322 -0.597861,1.40099 -0.597861,2.6617 0,1.48598 -0.31542,2.41323 -0.896792,2.63633 -0.687302,0.26374 -0.896792,1.39595 -0.896792,4.84685 0,2.60324 -0.252208,4.50272 -0.597862,4.50272 -0.328824,0 -0.597861,0.94164 -0.597861,2.09252 0,1.15088 -0.269038,2.09251 -0.597862,2.09251 -0.813324,0 -0.813324,25.50431 0,26.00698 0.328824,0.20322 0.597862,1.68293 0.597862,3.28824 0,1.6053 0.269037,3.08501 0.597861,3.28823 0.328824,0.20323 0.597862,1.70726 0.597862,3.34229 0,2.09095 0.266018,3.07486 0.896792,3.31692 0.655346,0.25148 0.896792,1.2832 0.896792,3.83205 0,1.91836 0.269038,3.65419 0.597861,3.85742 0.328824,0.20322 0.597862,1.29525 0.597862,2.42673 0,1.13148 0.269037,2.05723 0.597861,2.05723 0.328824,0 0.597862,1.47971 0.597862,3.28824 0,1.80853 0.269037,3.28823 0.597861,3.28823 0.328824,0 0.597862,0.83231 0.597862,1.84956 0,1.25764 0.334832,1.93799 1.046257,2.12587 0.66872,0.1766 1.465849,1.61264 2.209044,3.97959 2.213086,7.04832 10.329061,19.81132 16.781414,26.39007 0.66224,0.67522 1.58207,1.96752 2.04407,2.87179 0.462,0.90427 1.07581,1.64412 1.36401,1.64412 1.00817,0 3.45897,2.94598 3.45897,4.15786 0,0.75884 0.39702,1.23011 1.04626,1.2419 1.46282,0.0266 3.138774,1.41625 3.138774,2.60261 0,0.54733 0.62007,1.2309 1.37794,1.51904 0.75787,0.28814 2.70839,1.89153 4.33449,3.56309 1.62611,1.67156 3.42738,3.04338 4.00282,3.04848 0.57544,0.005 1.04626,0.27832 1.04626,0.60714 0,0.32882 0.43926,0.59786 0.97612,0.59786 0.53688,0 1.46176,0.55993 2.0553,1.24428 0.59354,0.68436 1.72753,1.31546 2.51999,1.40245 0.79246,0.087 2.35618,1.04039 3.47492,2.11866 1.11876,1.07828 3.02038,2.58858 4.22583,3.35622 1.20545,0.76765 2.36474,1.67566 2.57619,2.01781 0.21146,0.34215 0.90667,0.62209 1.54491,0.62209 0.63824,0 1.16044,0.26903 1.16044,0.59786 0,0.32882 0.53808,0.59786 1.19572,0.59786 0.65765,0 1.19573,0.26904 1.19573,0.59786 0,0.32882 0.91285,0.59786 2.02855,0.59786 1.25163,0 2.16034,0.34347 2.37268,0.89679 0.20117,0.52425 1.09702,0.8968 2.15648,0.8968 0.99679,0 1.81235,0.26903 1.81235,0.59786 0,0.32882 0.79123,0.59786 1.7583,0.59786 0.96706,0 1.92457,0.26904 2.1278,0.59786 0.20322,0.32882 1.16073,0.59786 2.1278,0.59786 0.96706,0 1.7583,0.26904 1.7583,0.59786 0,0.32883 1.41584,0.59787 3.14633,0.59787 2.6582,0 3.32048,0.23188 4.26877,1.49465 0.95282,1.26878 1.6067,1.49465 4.32694,1.49465 1.76247,0 3.20449,0.26904 3.20449,0.59786 0,0.38529 6.37719,0.59787 17.93584,0.59787 11.55866,0 17.93585,0.21257 17.93585,0.59786 0,0.32882 0.80711,0.59786 1.79358,0.59786 0.98647,0 1.79359,-0.26904 1.79359,-0.59786 0,-0.33726 1.69394,-0.59786 3.8861,-0.59786 2.19216,0 3.8861,-0.26061 3.8861,-0.59787 0,-0.32882 0.79123,-0.59786 1.75829,-0.59786 0.96707,0 1.90573,-0.23854 2.08592,-0.53009 0.18018,-0.29154 1.25263,-0.70361 2.38321,-0.91572 1.13059,-0.21209 2.17608,-0.71341 2.32332,-1.11403 0.20882,-0.56815 0.44199,-0.56398 1.05988,0.019 0.94874,0.89504 3.32336,0.98744 3.84126,0.14946 0.20322,-0.32882 1.06191,-0.59786 1.9082,-0.59786 0.8463,0 2.04109,-0.57924 2.6551,-1.2872 0.61401,-0.70797 1.11638,-0.977 1.11638,-0.59786 0,1.13058 2.0611,0.78144 2.98931,-0.50639 0.47401,-0.65764 1.43333,-1.19572 2.13184,-1.19572 0.6985,0 1.75695,0.53808 2.35212,1.19572 1.05077,1.16109 1.04424,1.19573 -0.22504,1.19573 -1.669,0 -2.40196,1.74587 -1.05047,2.5022 1.34773,0.75423 0.66783,1.68283 -1.23213,1.68283 -0.875,0 -2.13857,0.64557 -2.92547,1.49465 -0.76186,0.82206 -1.67834,1.49465 -2.03661,1.49465 -0.35827,0 -1.22896,0.53808 -1.93486,1.19573 -0.70591,0.65764 -1.71142,1.19572 -2.23447,1.19572 -0.52305,0 -1.33882,0.53807 -1.81283,1.19572 -0.64266,0.89164 -1.55047,1.19666 -3.56969,1.19941 -1.48932,0.002 -3.47847,0.40558 -4.42032,0.89679 -0.94185,0.49121 -2.02586,0.89311 -2.40893,0.89311 -0.38305,0 -1.08428,0.53807 -1.55829,1.19572 -0.47401,0.65765 -1.32099,1.19573 -1.88218,1.19573 -0.56119,0 -1.5494,0.67259 -2.19604,1.49465 -0.67483,0.85791 -1.79143,1.49465 -2.62103,1.49465 -0.79494,0 -2.0229,0.53808 -2.72881,1.19573 -0.7059,0.65764 -1.95141,1.19572 -2.76782,1.19572 -0.8164,0 -1.65064,0.26904 -1.85387,0.59786 -0.20322,0.32882 -1.03465,0.59786 -1.84763,0.59786 -0.81297,0 -1.63299,0.40356 -1.82226,0.89679 -0.2702,0.70413 -1.48641,0.8968 -5.66092,0.8968 -4.91821,0 -5.31679,0.0896 -5.31679,1.19572 0,0.96797 -0.39858,1.19572 -2.09252,1.19572 -1.15088,0 -2.09251,0.26904 -2.09251,0.59786 0,0.35056 -2.05266,0.59786 -4.96225,0.59786 -3.06238,0 -5.23693,0.27469 -5.67968,0.71744 -0.55801,0.558 -0.87687,0.558 -1.43487,0 -0.83416,-0.83416 -3.24788,-0.95876 -3.72169,-0.19212 -0.17856,0.28892 -1.995,0.64613 -4.03652,0.7938 -2.08502,0.15082 -3.81425,0.57566 -3.94547,0.96934 -0.17009,0.51023 -4.18368,0.70083 -14.7582,0.70083 -12.18137,0 -14.64465,-0.14468 -15.26885,-0.89679 z M 140.5956,38.820805 c 0.49829,-1.29853 -0.76673,-2.51969 -1.67219,-1.61422 -0.76529,0.76528 -0.29119,2.5512 0.67724,2.5512 0.34946,0 0.79719,-0.42164 0.99495,-0.93698 z m 139.07966,233.787845 3.06496,-0.42275 -3.06496,4.12183 c 0,0 -10.38936,12.77847 -16.38163,18.38971 -8.86807,8.30418 -18.28033,16.23752 -28.74713,22.40585 -14.78139,8.71103 -30.8082,15.62574 -47.34821,20.1864 -14.12097,3.89364 -28.89557,5.87166 -43.54344,5.91852 -12.07779,0.0386 -35.93391,-4.65027 -35.93391,-4.65027 l 0.42275,-10.56879 -17.544214,-11.30862 -19.129518,11.30862 -24.096856,-17.01577 13.950811,-24.20254 -10.251733,-17.12145 -27.478878,3.38201 -10.99154,-26.84474 20.60915,-12.57687 -4.33321,-24.73099 -24.7309807,-4.3332 -0.63413,-28.74713 25.7878707,-6.44697 5.17871,-20.50346 -21.77173,-14.37357 9.30055,-28.21869 27.05612,5.2844 12.259801,-17.227135 -13.950811,-24.51961 19.869337,-19.65796 21.542218,11.417416 18.462243,-9.388101 -3.96486,-26.337545 27.05612,-11.20293 14.02023,23.124425 21.49093,-3.466455 8.03229,-28.8528215 27.90162,-0.105687 7.29247,29.6983185 19.23521,1.90238 16.91008,-23.56841 25.78786,10.56879 -2.74789,29.69832 15.64182,10.35743 22.08879,-15.53614 24.20254,21.77173 -15.11338,22.8286 10.04036,18.072635 27.58456,-5.07302 12.99962,27.58456 -56.36044,31.9087 c 0,0 -1.84838,-7.40701 -3.145,-10.99 -2.9082,-8.03631 -10.14293,-22.82109 -10.35431,-23.45521 -0.21137,-0.63413 -13.29684,-21.47956 -22.72291,-29.59263 -15.16642,-13.053825 -33.16114,-24.025405 -52.52692,-29.064195 -18.41097,-4.79035 -35.88892,-5.37121 -55.87579,-2.22916 -30.7351,3.51903 -47.78565,16.48079 -66.654404,36.482685 -15.309453,14.90763 -29.95317,49.70514 -31.393719,66.19071 -2.490938,23.35515 -1.264784,44.59156 5.115245,60.72992 9.052756,22.74226 26.000654,44.03549 46.397028,58.12838 18.97334,13.10965 42.81537,19.99772 65.8436,21.24328 9.89677,0.5353 20.89099,-1.16256 30.59667,-3.17063 9.70568,-2.00807 21.39285,-3.73472 29.01135,-9.40623 11.77119,-8.76293 6.10476,-3.84491 25.57649,-17.75558 3.93316,-2.80986 10.4631,-10.04036 10.4631,-10.04036 z" /></g></svg>
